<svg xmlns:xlink="http://www.w3.org/1999/xlink" width="12.728ex" height="3.843ex" style="font-size: 15px; vertical-align: -0.338ex;" viewBox="0 -1508.9 5480.3 1654.5" role="img" focusable="false" xmlns="http://www.w3.org/2000/svg">
<defs>
<path stroke-width="1" id="E1-MJMAINB-44" d="M39 624V686H270H310H408Q500 686 545 680T638 649Q768 584 805 438Q817 388 817 338Q817 171 702 75Q628 17 515 2Q504 1 270 0H39V62H147V624H39ZM655 337Q655 370 655 390T650 442T639 494T616 540T580 580T526 607T451 623Q443 624 368 624H298V62H377H387H407Q445 62 472 65T540 83T606 129Q629 156 640 195T653 262T655 337Z"></path>
<path stroke-width="1" id="E1-MJMAINB-7E" d="M343 202Q320 202 278 225T215 249Q181 249 146 214L134 202L115 219Q111 222 106 226T98 234L96 236Q158 306 165 313Q199 344 230 344Q239 344 244 343Q262 339 300 318T359 297Q393 297 428 332L440 344L459 327Q463 324 468 320T476 312L478 310Q416 240 409 233Q375 202 343 202Z"></path>
<path stroke-width="1" id="E1-MJMAINB-2212" d="M119 221Q96 230 96 251T116 279Q121 281 448 281H775Q776 280 779 278T785 274T791 269T795 262T797 251Q797 230 775 221H119Z"></path>
<path stroke-width="1" id="E1-MJMAINB-31" d="M481 0L294 3Q136 3 109 0H96V62H227V304Q227 546 225 546Q169 529 97 529H80V591H97Q231 591 308 647L319 655H333Q355 655 359 644Q361 640 361 351V62H494V0H481Z"></path>
<path stroke-width="1" id="E1-MJMAINB-32" d="M175 580Q175 578 185 572T205 551T215 510Q215 467 191 449T137 430Q107 430 83 448T58 511Q58 558 91 592T168 640T259 654Q328 654 383 637Q451 610 484 563T517 459Q517 401 482 360T368 262Q340 243 265 184L210 140H274Q416 140 429 145Q439 148 447 186T455 237H517V233Q516 230 501 119Q489 9 486 4V0H57V25Q57 51 58 54Q60 57 109 106T215 214T288 291Q364 377 364 458Q364 515 328 553T231 592Q214 592 201 589T181 584T175 580Z"></path>
<path stroke-width="1" id="E1-MJMAINB-41" d="M296 0Q278 3 164 3Q58 3 49 0H40V62H92Q144 62 144 64Q388 682 397 689Q403 698 434 698Q463 698 471 689Q475 686 538 530T663 218L724 64Q724 62 776 62H828V0H817Q796 3 658 3Q509 3 485 0H472V62H517Q561 62 561 63L517 175H262L240 120Q218 65 217 64Q217 62 261 62H306V0H296ZM390 237L492 238L440 365Q390 491 388 491Q287 239 287 237H390Z"></path>
</defs>
<g stroke="currentColor" fill="currentColor" stroke-width="0" transform="matrix(1 0 0 -1 0 0)">
 <use xlink:href="#E1-MJMAINB-44" x="0" y="0"></use>
 <use xlink:href="#E1-MJMAINB-7E" x="153" y="593"></use>
<g transform="translate(882,665)">
 <use transform="scale(0.707)" xlink:href="#E1-MJMAINB-2212" x="0" y="0"></use>
<g transform="translate(632,0)">
<g transform="translate(120,0)">
<rect stroke="none" width="450" height="60" x="0" y="146"></rect>
 <use transform="scale(0.574)" xlink:href="#E1-MJMAINB-31" x="104" y="647"></use>
 <use transform="scale(0.574)" xlink:href="#E1-MJMAINB-32" x="104" y="-686"></use>
</g>
</g>
</g>
<g transform="translate(2305,0)">
 <use xlink:href="#E1-MJMAINB-41" x="0" y="0"></use>
 <use xlink:href="#E1-MJMAINB-7E" x="147" y="605"></use>
</g>
<g transform="translate(3174,0)">
 <use xlink:href="#E1-MJMAINB-44" x="0" y="0"></use>
 <use xlink:href="#E1-MJMAINB-7E" x="153" y="593"></use>
<g transform="translate(882,665)">
 <use transform="scale(0.707)" xlink:href="#E1-MJMAINB-2212" x="0" y="0"></use>
<g transform="translate(632,0)">
<g transform="translate(120,0)">
<rect stroke="none" width="450" height="60" x="0" y="146"></rect>
 <use transform="scale(0.574)" xlink:href="#E1-MJMAINB-31" x="104" y="647"></use>
 <use transform="scale(0.574)" xlink:href="#E1-MJMAINB-32" x="104" y="-686"></use>
</g>
</g>
</g>
</g>
</g>
</svg>